/* XPM */
static char *_550135428176[] = {
/* columns rows colors chars-per-pixel */
"16 16 154 2 ",
"   c #533B14",
".  c #553D15",
"X  c #553F1B",
"o  c #5D4E1B",
"O  c #775F0B",
"+  c #624D11",
"@  c #63451D",
"#  c #61511D",
"$  c #7C6306",
"%  c #5B4125",
"&  c #584E3A",
"*  c #644F23",
"=  c #725526",
"-  c #6B583D",
";  c #705730",
":  c #735D31",
">  c #7C6649",
",  c #835F02",
"<  c #81670F",
"1  c #846A0F",
"2  c #926703",
"3  c #936204",
"4  c #837700",
"5  c #977107",
"6  c #907309",
"7  c #9A740D",
"8  c #896E11",
"9  c #8A622B",
"0  c #996A2C",
"q  c #9E7322",
"w  c #8B6530",
"e  c #8D6632",
"r  c #89723F",
"t  c #9C743A",
"y  c #9A743F",
"u  c #A36E25",
"i  c #A57323",
"p  c #A87022",
"a  c #B17523",
"s  c #856D4E",
"d  c #977A42",
"f  c #957A48",
"g  c #958600",
"h  c #9C8201",
"j  c #9C8501",
"k  c #958803",
"l  c #948912",
"z  c #9F8D14",
"x  c #A1810E",
"c  c #AB8D0B",
"v  c #AE900B",
"b  c #A38316",
"n  c #A39512",
"m  c #B18733",
"M  c #B28733",
"N  c #BB8834",
"B  c #B58D3C",
"V  c #BD933C",
"C  c #CD8D1D",
"Z  c #D08C16",
"A  c #CC9F18",
"S  c #D8921A",
"D  c #DC971F",
"F  c #E9A01C",
"G  c #CD9029",
"H  c #CB962D",
"J  c #D19122",
"K  c #D49321",
"L  c #C28A35",
"P  c #C58B35",
"I  c #C08F37",
"U  c #C88E35",
"Y  c #C3983B",
"T  c #CB9C3F",
"R  c #DEB72C",
"E  c #D4A734",
"W  c #D3A13D",
"Q  c #EAB532",
"!  c #E7BD30",
"~  c #F4B536",
"^  c #EBC41D",
"/  c #998156",
"(  c #B58640",
")  c #B38B40",
"_  c #BF9A42",
"`  c #B99248",
"'  c #BD9449",
"]  c #8F8273",
"[  c #AE9E6B",
"{  c #A8996C",
"}  c #C49341",
"|  c #C89D4E",
" . c #D19841",
".. c #D29E43",
"X. c #D39F44",
"o. c #C19E50",
"O. c #CFA14F",
"+. c #D3A141",
"@. c #D5A543",
"#. c #D8A240",
"$. c #D6AB4B",
"%. c #D8A94B",
"&. c #C6AD57",
"*. c #C9A65D",
"=. c #D0A752",
"-. c #D1AA50",
";. c #D0A75B",
":. c #D7B45C",
">. c #DAB85E",
",. c #E9B647",
"<. c #E5BA4F",
"1. c #E1B650",
"2. c #E3B753",
"3. c #E8B950",
"4. c #E9BF57",
"5. c #E3BB58",
"6. c #F1BE56",
"7. c #C7B168",
"8. c #DAB260",
"9. c #D7B768",
"0. c #CCBE73",
"q. c #D1B272",
"w. c #D5B974",
"e. c #E1B861",
"r. c #E4BC6C",
"t. c #E3C051",
"y. c #F7C554",
"u. c #DDC260",
"i. c #E6C063",
"p. c #E3C265",
"a. c #E1C565",
"s. c #EFC666",
"d. c #E5CE6E",
"f. c #F6CC65",
"g. c #F4CD6C",
"h. c #FBD165",
"j. c #F4DB67",
"k. c #FCD468",
"l. c #FCD76F",
"z. c #FFDB6C",
"x. c #E7C370",
"c. c #E2C574",
"v. c #ECCF78",
"b. c #EFDE7B",
"n. c #EEDA7F",
"m. c #FFDD70",
"M. c #F1D67A",
"N. c #FFE275",
"B. c #ECDA8D",
"V. c #E1D198",
"C. c #EEE08E",
"Z. c #FAE688",
"A. c #E1D4A7",
"S. c None",
/* pixels */
"S.S.S.S.S.S.S.z n S.S.S.S.S.S.S.",
"S.S.S.S.S., S.S.S.S.S.l S.S.S.S.",
"S.S.S.7 S.r o.%.#.N w S.g S.S.S.",
"S.S.x S.V 6.Q b.C.q F 4.& j S.S.",
"S.S.S.i K 3.! n.B.&.` ..1.S.h S.",
"S.6 ; D G j.A W @.E A.s I 0 $ S.",
"S.S.` S c.V +.k.m.y.V f v.L   8 ",
"c o 1.J q.m N.l.5.e.X.O.;.U X < ",
"v # <.C | _ m.f.p.R a./ 9  .X < ",
"S.S.-.Z $.B M.g.=.m *.{ t P X 8 ",
"S.$ d ~ :.u.Y X.L a 9.[ e u + S.",
"S.b S.,.s.t.^ >.w.d.0.> } % h S.",
"S.S.5 @ h.x.T Z.V.e y 8.s S.S.S.",
"S.S.S.2 S.7.r.i.' p ( - S.4 S.S.",
"S.S.S.S.3 S.S.: = * S.k S.S.S.S.",
"S.S.S.S.S.S.S.S.S.S.S.S.S.S.S.S."
};
