/* XPM */
static char *_550135412632[] = {
/* columns rows colors chars-per-pixel */
"64 64 233 2 ",
"   c #0D0C0D",
".  c #150C0A",
"X  c #1B140D",
"o  c #0E0F14",
"O  c #150F15",
"+  c #0F1113",
"@  c #0C1018",
"#  c #111111",
"$  c #191612",
"%  c #1B1A13",
"&  c #19161C",
"*  c #2B1A0B",
"=  c #30160F",
"-  c #351B09",
";  c #221D12",
":  c #251A1C",
">  c #25220F",
",  c #38260B",
"<  c #3D330E",
"1  c #2A2413",
"2  c #282314",
"3  c #362915",
"4  c #373311",
"5  c #3C3311",
"6  c #322421",
"7  c #472C0B",
"8  c #54260D",
"9  c #4A3A0B",
"0  c #593506",
"q  c #472816",
"w  c #493813",
"e  c #543415",
"r  c #633808",
"t  c #773C00",
"y  c #663B18",
"u  c #4A2F25",
"i  c #453524",
"p  c #593821",
"a  c #59490E",
"s  c #5F520B",
"d  c #4B4210",
"f  c #594515",
"g  c #654A0D",
"h  c #784807",
"j  c #6A570B",
"k  c #78580C",
"l  c #68461A",
"z  c #734813",
"x  c #725418",
"c  c #6E6106",
"v  c #78660A",
"b  c #5C4C2A",
"n  c #694829",
"m  c #69552A",
"M  c #785626",
"N  c #715130",
"B  c #796435",
"V  c #66524B",
"C  c #786A41",
"Z  c #833A00",
"A  c #8E570D",
"S  c #985808",
"D  c #885618",
"F  c #A65900",
"G  c #896A0B",
"H  c #976D06",
"J  c #8B760A",
"K  c #957609",
"L  c #9B6818",
"P  c #A86708",
"I  c #B66C06",
"U  c #B97708",
"Y  c #A66D19",
"T  c #AC7410",
"R  c #AA7219",
"E  c #B87919",
"W  c #865B28",
"Q  c #915A27",
"!  c #815734",
"~  c #976828",
"^  c #8E6D34",
"/  c #996A35",
"(  c #A36C27",
")  c #AA7628",
"_  c #B47C28",
"`  c #A26B31",
"'  c #A77836",
"]  c #D36D00",
"[  c #C3790F",
"{  c #94754A",
"}  c #A67C45",
"|  c #A57D51",
" . c #997E6B",
".. c #99860A",
"X. c #AD8908",
"o. c #B79807",
"O. c #BD821C",
"+. c #BCA307",
"@. c #AD822D",
"#. c #B9852A",
"$. c #AC8237",
"%. c #B98736",
"&. c #BE9432",
"*. c #D6890B",
"=. c #C89705",
"-. c #CE8E12",
";. c #C88519",
":. c #D48D1A",
">. c #D8941A",
",. c #EA990A",
"<. c #E59917",
"1. c #CAA80A",
"2. c #D9A803",
"3. c #D8B704",
"4. c #FDA501",
"5. c #EAB402",
"6. c #FAB800",
"7. c #F1AD17",
"8. c #C68B28",
"9. c #CA932B",
"0. c #D79826",
"q. c #C38C37",
"w. c #C79638",
"e. c #D59B37",
"r. c #E29B28",
"t. c #D9A72E",
"y. c #CCA13A",
"u. c #D8A338",
"i. c #E3A22C",
"p. c #E9A72A",
"a. c #E6AB39",
"s. c #F2B130",
"d. c #F4B33A",
"f. c #DEC003",
"g. c #FDC300",
"h. c #F0CC07",
"j. c #FBCC03",
"k. c #FFD300",
"l. c #FEDB00",
"z. c #FFD00C",
"x. c #FDD519",
"c. c #FFE400",
"v. c #FFEC00",
"b. c #FFF300",
"n. c #FFFE00",
"m. c #FFE911",
"M. c #FED82A",
"N. c #FCD036",
"B. c #FFEA36",
"V. c #FEE63D",
"C. c #95864F",
"Z. c #A78445",
"A. c #B68A47",
"S. c #BA9549",
"D. c #B28D51",
"F. c #AD9158",
"G. c #B69655",
"H. c #B79965",
"J. c #B19770",
"K. c #AFA465",
"L. c #C69648",
"P. c #CC9749",
"I. c #D39C46",
"U. c #C59B54",
"Y. c #CCA34A",
"T. c #D8A747",
"R. c #CAA557",
"E. c #D8AB55",
"W. c #D6B254",
"Q. c #DDB454",
"!. c #D9B55C",
"~. c #E3AD44",
"^. c #E8B547",
"/. c #F5BA45",
"(. c #E1AD53",
"). c #E7B959",
"_. c #F0BE53",
"`. c #CBAC68",
"'. c #DBBA67",
"]. c #C9B576",
"[. c #D5B974",
"{. c #E4BB65",
"}. c #E3BD72",
"|. c #FCC24B",
" X c #F9C548",
".X c #FDDC4C",
"XX c #ECC25B",
"oX c #F8C657",
"OX c #F2C55B",
"+X c #FCCC5C",
"@X c #FEE85B",
"#X c #FFF554",
"$X c #DAC371",
"%X c #E7C568",
"&X c #F5CB65",
"*X c #F9CE62",
"=X c #F2CD6C",
"-X c #FCD165",
";X c #FAD46C",
":X c #FAD86B",
">X c #E6C876",
",X c #F3CD75",
"<X c #EDD47B",
"1X c #F7D776",
"2X c #FCDA73",
"3X c #FEE869",
"4X c #FFF868",
"5X c #FEE975",
"6X c #FFE47B",
"7X c #FFF67C",
"8X c #C9B78B",
"9X c #D8C28B",
"0X c #EAD689",
"qX c #F6DB88",
"wX c #F1D791",
"eX c #FCE888",
"rX c #FFF789",
"tX c #FAEA95",
"yX c #FEF596",
"uX c #FFFA9B",
"iX c #EDE4A8",
"pX c #F7EBA6",
"aX c #FCF7A6",
"sX c #FEFDAC",
"dX c #FDF9B2",
"fX c #FEFDBE",
"gX c #F6ECCC",
"hX c #FDFEC2",
"jX c #FCFCCA",
"kX c #FFFFD6",
"lX c #FFFFE7",
"zX c #FFFFF9",
"xX c None",
/* pixels */
"xXxXxXxXxXxXxXxXxXxX# # # # # # # # # # # + # # # # # # # # # # # # # # # # # # # # # # # # # # # # # # # # xXxXxXxXxXxXxXxXxXxX",
"xXxXxXxXxXxXxX# # # # # # # # # # # # # + + # # # # # # # # # # # # # # # # # # # # # # # # # # # # # # # # # # # xXxXxXxXxXxXxX",
"xXxXxXxXxX# # # # # # # # # # # # # # # # # # # # # # # + # # # # # #   # # # # # # # # # # # # # # # # # # # # # # # xXxXxXxXxX",
"xXxXxXxX# # # # # # # # # # # # # # # # # # # # # # 4 9 a j c c c s 9 , > # # # # # # # # # # # # # # # # # # # # # # # xXxXxXxX",
"xXxXxX# # # # # # # # # # # # # # # # # # O 2 k =.c.n.n.n.n.n.n.n.n.n.n.n.f.v 4 # # # # # # # # # # # # # + # # # # # # # xXxXxX",
"xXxX# # # # # # # # # # # # # # # # # % g 2.v.b.l.3.K s d 5 4 4 4 d d J 1.b.n.n.c.v 2 # # # # # # # # # # # # # # # # # # # xXxX",
"xXxX# # # # # # # # # # # # # # # % h 6.c.6.H w ; # # # # # # O + # # # # % 5 v c.n.n...> # # # # # # # # # # # # # # # # # xXxX",
"xX# # # # # # # # # # # # # # # 0 4.l.4.g ; # # # # # $ % ; 3 1 % & % # # # # % # d h.n.n.v + o + # # # # # # # # # # # # # # xX",
"xX# # # # # # # # # # # # # % U g.4.g O # # # % - A 8.y.e.Y.|.a.#.#.8._ f 6 & # # # # d l.n.h.4 # # # # # # # # # # # # # # # xX",
"# # # # # # # # # # # # # , 6.g.I ; # # $ * 0 _ !.2X6XeX6X+X/. X Xs.7.<.:.O.) ! : # # # $ J n.n.s # # # # # # # # # # # # # # # ",
"# # # # # # # # # # # . r k.g.g o # # - I ^.0XtXyX0Xw.W.$XT.i.$X{.d.{.%Xa.7.*.>.@.n & # # # < v.n.K o # # # # # # # # # # # # # ",
"# # # # # # # # # # # j l.6.3 # # X r T.tXtX,X8.w.%.R T @.O.U ) R R ' C.%.T.!.y.<.a.L.n O # # ; h.n.X.  # # # # # # # # # # # # ",
"# # # # # # # # + + g c.6.2 # # * A {.tX>XY.y.q.>.7. X/._.=X0X>X}.!.~.#.g L ^.oX^.u. X:X^ . # # # f.n.X.# # # # # # # # # # # # ",
"# # # # # # # # # 7 v.6.2 # . 7 :.%X<Xw.;.y.~.).i.B.@X7XyXsXhXhXsXrX4X~.p L <.<.t.W.W.+XrXD.X + # # f.n.v o # # # # # # # # # # ",
"# # # # # # # # ; l.k.3 # # , E ^.T.&.w.e.e.XX{.i.M.#X3X6XtXdXaXeX7X4X~.y L p.r.>.>./.^.%XsX`.= + # % c.n.w # # # # # # # # # # ",
"# # # # # # # # 5.v.g # # 7 E L.w._ 9.e.u.~._.&Xa.,.0.;.~.aXjX0X8._ ` ~ f L p.p.0.0.>.a.!.=XuXR.= # # 1 n.l.$ # # # # # # # # # ",
"# # # # # # # j n.U + # ; P 9.9.y.9.[ 0.(.1XoX*X`.~ A S a.aXjXqXE.} D y e z T :.i.r.>.0.^.d./.7XA.& # O k n.=.o # # # # # # # # ",
"# # # # # # X l.j.% # # z #.U q.9.O.9.e.*XaX$Xe.t.i.N.3XeXtXpXdXsX7X6X1X!.' M h L 0.t.t.s./.a.~.:X~ o # . 3.n.5 # # # # # # # # ",
"# # # # # + H n.g # # 7 @.0.&.;.U 8.0.^.^.I.(.6.z.V.@X5XyXaXjXhXuX7X7XsXsXuXwXH.l g @.u.L.Y.XX~.~.^.p + # 3 n.2.o # # # # # # # ",
"# # # # # ; b.5.# # * _ y.w.Y.U [ :.t.0.#.^..XB.x.V.@X3X3X:X6X<X,X&X3X#XV.7XhXlXgXJ.p N N b G.(.9./._ : # O o.n.9 # # # # # # # ",
"# # # # # H n.s # o z ).;.E ;.U ;.r.:.E =XrX@XM.x.M.s.:.O.O.E E ) ` ' #.1.z.4XlXzXzX8XH.B O ^ (.e.e.i.n O O 2 n.=.# # # # # # # ",
"# # # # $ c.j.O # X ' &Xw.;.-.;.:.:.T <XsX5X@Xx.4.I A W ~ @.#.9.8.%.@./ ! Q w.pXzXzXjX9Xb b G.(.e.#.r.( & # # 2.v.2 # # # # # # ",
"# # # # < n.G # # r ).!.!.9.;.;.>.I W.sXyXeXN.*.x B %.a. X|././.|./.d.a.~.%.D / 9XkXiX .V { ).Q.T.w.#.<.p + # d n.v # # # # # # ",
"# + # + K n.w # # $.;XU ;.0.:.*.U #.eXyXsXN.] y ^ a./.|.+X-X-X-X:X-X+X Xd./.~.) M iX8X- m !.{.y.I.E._ :.D & # $ c.5.# # # # # # ",
"# # # # k.k.$ # X R.1X9.>.r.-.*.R T.2XdX3X] e Z.d.|.+X-X;X1X1X2X:X;X;X-XoXa././.' J.N 5 Z.>XqX'.`.Y.q.8.E 6 o # =.c.2 + + # # # ",
"# # $ > n.=.+ + 8 %X<X'.>.>.*.U.`._.qXyX] 0 ^ d. X+X*X2X2X;X-X;X;X;X;X;X-X~.9./.w.n 3 M Y.!.iX0X{.[.L._ ;.e o # j n.w # + # # # ",
"# # + 9 n.j # # ` 1Xu.t.r.>.0.$.R.jXkX/.Z m a./.*X*X1X:X*X*X*X*X;X*X-X;X2XT.#.u.~.R.{ Y I.>XtXdX>X%.8.%.:.M o o 5 n.k # # # # # ",
"+ + + j n.9 # . D.6X*.>.i.t.y.P }.zXkX;.0 C./.<X;X;X;X*X*X:X;X-X2X-XOXXX&XXX).e.e.(.(.P.wX0X>X0X%.E E L.9.D @ # 1 v.X.+ # # # # ",
"# # # v n.4 #   K.yX!.i.<.t.O.T 0XpX,XS g I.|.;X1X;X-X:X;X;X-X:X:X&X&X_.XX=X).T.I.(.!.{.'.R.`.A.q.q.R A.e.L & # % c.2.# # # # # ",
"# # # K b.> # . ].eX~.p.i.<.P @.wXqX~.Z C ).|.:X6X1X=X;X;X;X:XOXq.S.!.*X&XXX).).(.w.Q.U.P.'.I.P.L.q.' R.~.P : # # k.5.+ # # + # ",
"# # # X.v.; # . ].6X<.r.i.<.P ' wXqXr.h  .=X.X2X1X=X2X2X;X;X=XQ.(.D m L.R.U.U.S.R Y _ | D.`.L.L.A.q._ ).XXS & o # g.5.# # # # # ",
"# # # K c.% # * ,XyX^.<.r.<.P @.wXqXe.Z C.^.oX2X2XOX:X2X;X;X%X'.tXY./ $.@.' ' } / { { ! M n ! A.q._ ` U.T.P : # # g.6.# # # # # ",
"# # # ..v.> # . '.uX%Xr.<.<.H $.qXqXu.t C./.oX2X2X-X*X-X;X+XXXE.eXrX@XV.x.z..X:XtXfXiXR.~ * i Z.q.8.` D.e.L : o # g.5.# # # # # ",
"# # # J n.1 # . ].rXp.<.0.>.T ) qXqX~.t C ^.-X1X=X:X+X&X&XOX^.(.eXrX4XV.m.c.B.7XsXhXdXR.q 3 B %.A.A.` I.a.L & # # l.5.# # # # # ",
"# # # j n.5 #   H.5Xp.p.0.>.O.Y a.&X&XA M ~.*XtX1X0XeXoXOX=X%X(.tX;X_.~.t.i.T.W.$XfXdXD.3 b D.L.L.P.) L.i.A & # ; v.=.o # # # # ",
"# # # a n.a o # $.6XQ.a.-.>.0.Y 0._.6XE a R.=X2XY.[.iX,X1X,X(.(.6X) y M ! N n 7 ! fXdXD.q b A.L.A.A.' ' :.D @ # 3 n.K # # # # # ",
"# # # w n.K # # W 2XXX^.*.>.p.( #.oXeX/.t C.&XOXT.W.tXqX,X_.(.T.q.M b D.S.Z.' A } hXdXD.3 b A.S.U.} _ 9.;.l + # 9 n.a # # # # # ",
"# # # $ b.5.# # - '.:Xd.*.:.p.#.( oXqXyXI r `.=XOX5X=XXX).).).E.$.} E.(.I.P.q.#.A.fXdXD.- m L.L.U.} #.r.E 6 # O G v.4 # # # # # ",
"# # # # 2.v.> # # G.5XQ.t.:.i.a.( T.2XdX.XS m $XOX_.XX).(.).{.).).(.E.P.L.#.q.R ' hXdXG.= n D.U.P./ ` :.L & O o j.k.X o # # # # ",
"# # # # s n.s # + M -X{._.*.t./.%.) 6XuXsXs.S C !.XX).Q.I.(.(.E.R.P.q.%.%.q.%.~ | hXpXR.W 6 B G.L._ ) [ l @ o 1 b.=.# # # # # # ",
"# # # # > n.=.o # - E.+X|.p.t.^.XX( E.sXuXrXx.F N K.(.T.T.e.q.q.q.q.q.8.;.' W { >XhXiX%X#.- i F.} O.<.E 6 + # G n.d # # # # # # ",
"# # # # # 5.v.2 # O _ |.Q.Q.i.^.+XQ.L <XdX5X@Xx.*.A D $.$.@.q.%.q._ ' L D ^ y.3XuXhXfXG.q 6 { Z.Q E 0.M @ # # k.k.$ # # # # # # ",
"# # # #   9 n.T o # , T.^.!./.a.XX:XW.R 2XrX@XM.x.M.0.#.R Y Y L L ~ ( ' y.N.V.5XaXkX].q : C G.} E 9.%.: @ # a n.G # # # # # # # ",
"# # # # # # h.c.; # o z y. X+X/.XX:X6XR.T  X@XM.x.V.@X3X3X;X<X>X%XXX.X@XrXrX3X5XsXJ.- 3 { ].Z.q.a.~.M @ # $ k.c.2 o # # # # # # ",
"# # # # # # 9 n.X.X # X R t.{.XXoX;X1X1X`.E <.z.m.V.@X6XtXsXjXkXhXsXuXdXlXaXaX`.! u p C.].H.Q R +X' @ + # k n.K # # # # # # # # ",
"# # # # # # # 2.b.w # # e T t.=X_.oX,X,X,X].A.O.,.7.N.3XeXtXpXjXkXhXdXqX>XL.{ V e N F.[.H.G.9.!.!.: + + ; b.k.% # # # # # # # # ",
"# # # # # # # > v.g.O # # A <.~.^.{.&X<X,X,X>XJ.D.) E -.^.uXhX0XI.U.} Q y e e C.`.S.R.| / u.tX,Xq # O # 3.n.g # # # # # # # # # ",
"# # # # # # # # k n.=.# # $ A w.%X%XQ.(.}.>X>X>X'.`.C.O.^.aXhXqXi.z 7 z l D ' R.R.D.F.U.Y 0XaXp o # O J n.X.o # # # # # # # # # ",
"# # # # # # # # # =.v.G # # # h d.eXQ.9.{.}.'.}.}.=XP./.rXtXdXfXeXD e ) #.' %.` | / R.XXtXwXn X o # a n.j.$ # # # # # # # # # # ",
"# # # # # # # # # . 6.c.k # # O S i.tXpX%XL.%.'.`.`.L.^.yXaXjXkXeXD f _ ( ~ / $.W.A.Y.qX}.p   + o 9 n.v.2 # # # # # # # # # + # ",
"# # # # # # # # # # $ g.c.A # # # - ) eXhX[.Y.Q.E.A.} i..X+X;X,X&XD w / ' w.' Y.^.!.!.^ 6 $ + # a n.b.3 # # # # # # # # # # + + ",
"# # # # # # # # # # # % 6.l.H O # # X 0 Y.uXaXtX}.P.E.q.~ L L D W W W / T.a.#.#.T.%.u O o # + v n.v.5 # # # # # # # # # # # # # ",
"# # # # # # # # # # # # # =.k.,.1 # # + * I T.<XtXtXyX$XJ.K.S.Z.' w.e.9.#.8.#.~ N 6 + + + $ +.n.l.1 # # # # # # # # # # # # # # ",
"# # # # # # # # # + # # # # A g.6.h # # # . X 0 0.T.'.=X&XOXoX_.T.e.q.e.q.M i & + # # # a n.n.+.& + # # # # # # # # # # # # # # ",
"# # # # # # # # # # # # # # # 7 4.g.4.9 # # # # X * * e l n ) ~ b n i 5 3 # + + + # 4 3.n.b.j o # # # # # # # # # # # # # # # # ",
"xX# # # # # # # # # # # # # # + o A 6.l.4.j ; O o # # # # # # # # + o + # # + % a h.n.n.X.% + # # # # # # # # # # # # # # # # xX",
"xX# # # # # # # # # # # # # # # # # ; k 6.c.l.=.s 5 ; + + + # # # # + % 4 a o.n.n.b...4 # # # # # # # # # # # # # # # + # # # xX",
"xXxX# # # # # # # # # # # # # # # # # # % a X.k.n.n.b.l.f.+.o.o.+.3.l.n.n.n.n.1.c 2 # # # # # # # # # # # # # # # # # # # # xXxX",
"xXxX# # # # # # # # # # # # # # # # # # O # # X < v 1.j.v.n.n.n.n.b.l.3.J d > + # # # # # # # # # # # # # # # # # # # # # # xXxX",
"xXxXxX# # # # # # # # # # # # # # # # # # # # # # # + + # ; > 1 > $ # o # + + + # # # # # # # # # # # # # # # # # # # # # xXxXxX",
"xXxXxXxX# # # # # # # # # # # # # # # # # # # # # # # # # # # # # # # # # # # # # # # # # # # # # # # # # # # # # # # # xXxXxXxX",
"xXxXxXxXxX# # # # # # # # # + # # # # # # # # # # # # # # # # # # # # # # # # # # # # # # # # # # # # # # # # # # # # xXxXxXxXxX",
"xXxXxXxXxXxXxX# # # # # # # # # # # # # # # # # # # # # # # # # # # # # # # # # # # # # # # + # # # # # # # # # # xXxXxXxXxXxXxX",
"xXxXxXxXxXxXxXxXxXxX# # # # # # # # # # # # # # # # # # # # # # # # # # # # # # # # # # # # # # # # # # # # xXxXxXxXxXxXxXxXxXxX"
};
