/* XPM */
static char *_550135418816[] = {
/* columns rows colors chars-per-pixel */
"32 32 200 2 ",
"   c #03040C",
".  c #0C0B0D",
"X  c #16130C",
"o  c #1B170B",
"O  c #030612",
"+  c #060912",
"@  c #0B0C12",
"#  c #0C0B16",
"$  c #100D18",
"%  c #0F1011",
"&  c #111111",
"*  c #1B1512",
"=  c #1A1A11",
"-  c #1B1519",
";  c #20160E",
":  c #211B0E",
">  c #221C10",
",  c #271C15",
"<  c #2B230F",
"1  c #2D290E",
"2  c #332D0F",
"3  c #3A2B0E",
"4  c #34310C",
"5  c #3C340D",
"6  c #2D2910",
"7  c #392A16",
"8  c #2B2B2A",
"9  c #3C2D21",
"0  c #453B0E",
"q  c #493B0D",
"w  c #472F15",
"e  c #4E3719",
"r  c #523A1C",
"t  c #4C3B26",
"y  c #523D25",
"u  c #4B410C",
"i  c #55470B",
"p  c #5E540B",
"a  c #5D421A",
"s  c #674A0B",
"d  c #68560C",
"f  c #73550A",
"g  c #725C0A",
"h  c #694414",
"j  c #72650A",
"k  c #79620A",
"l  c #7C6B08",
"z  c #594429",
"x  c #5B4833",
"c  c #654B29",
"v  c #6B522D",
"b  c #7B5A2B",
"n  c #715734",
"m  c #735B3C",
"M  c #7C6649",
"N  c #855809",
"B  c #876E09",
"V  c #8D6D09",
"C  c #8B7509",
"Z  c #967707",
"A  c #986517",
"S  c #A17D07",
"D  c #B67B05",
"F  c #A67119",
"G  c #895E21",
"H  c #986B26",
"J  c #9E7329",
"K  c #8B6B34",
"L  c #896937",
"P  c #936E35",
"I  c #99783C",
"U  c #A97827",
"Y  c #B77D25",
"T  c #A87C35",
"R  c #CA7F04",
"E  c #947846",
"W  c #AE8A06",
"Q  c #A38608",
"!  c #AB9606",
"~  c #B89806",
"^  c #BE821A",
"/  c #B9A205",
"(  c #B8822D",
")  c #A3823C",
"_  c #AB813E",
"`  c #B48435",
"'  c #BB8533",
"]  c #BD8B33",
"[  c #B5843C",
"{  c #BC8B3B",
"}  c #BD903A",
"|  c #C88608",
" . c #D78F0B",
".. c #C99A05",
"X. c #C3851B",
"o. c #CD8A18",
"O. c #DC971B",
"+. c #E49902",
"@. c #E0991D",
"#. c #C9A804",
"$. c #D6A904",
"%. c #D4AD04",
"&. c #C6B104",
"*. c #CDB604",
"=. c #D8BA03",
"-. c #E6AA02",
";. c #E6B803",
":. c #C98D25",
">. c #C48B2A",
",. c #C8952B",
"<. c #D79828",
"1. c #C38E36",
"2. c #C69334",
"3. c #C89536",
"4. c #C3943C",
"5. c #CD9B3C",
"6. c #D19A34",
"7. c #D29E3C",
"8. c #E29E24",
"9. c #CDA228",
"0. c #DCA32D",
"q. c #D6A33D",
"w. c #D8A439",
"e. c #E9AF2B",
"r. c #E3AA35",
"t. c #E4B031",
"y. c #EBB33D",
"u. c #ECC202",
"i. c #F9C61C",
"p. c #F4C72A",
"a. c #EDC43B",
"s. c #9E824A",
"d. c #AA8749",
"f. c #B58C46",
"g. c #B99348",
"h. c #AB8C56",
"j. c #B59456",
"k. c #B39F74",
"l. c #C29342",
"z. c #CB9C43",
"x. c #C49749",
"c. c #CB9D4C",
"v. c #C59E52",
"b. c #CCA446",
"n. c #D3A444",
"m. c #DAA542",
"M. c #DAAA48",
"N. c #D9AC4C",
"B. c #DAB54E",
"V. c #C6A356",
"C. c #D4A953",
"Z. c #DAB55C",
"A. c #E2AF48",
"S. c #E2B54D",
"D. c #E8B749",
"F. c #EBB94C",
"G. c #F1BB49",
"H. c #E4BA56",
"J. c #E5B658",
"K. c #E9BD5B",
"L. c #D5AE62",
"P. c #CEB16D",
"I. c #DAB565",
"U. c #DDBC6D",
"Y. c #E2BE63",
"T. c #E1BF79",
"R. c #ECC149",
"E. c #E7C25E",
"W. c #ECC25B",
"Q. c #F2C152",
"!. c #F6C759",
"~. c #FECC5B",
"^. c #F5D758",
"/. c #FFE452",
"(. c #FFE851",
"). c #DFC16D",
"_. c #DAC47A",
"`. c #EDC465",
"'. c #E7C668",
"]. c #F3CB66",
"[. c #F7D269",
"{. c #FAD46B",
"}. c #E6C776",
"|. c #ECD27B",
" X c #F5D877",
".X c #FFED7A",
"XX c #D1BD88",
"oX c #D6C58B",
"OX c #EAD382",
"+X c #ECD989",
"@X c #FDEA86",
"#X c #FBE29E",
"$X c #FFFB95",
"%X c #FFF39A",
"&X c #DACEA3",
"*X c #F6EAA4",
"=X c #FBF5AF",
"-X c #FDFCB5",
";X c #FFFFEB",
":X c None",
/* pixels */
":X:X:X:X& & & & & & & & & . @ + @ @ @ % % % % & & & & & :X:X:X:X",
":X:X:X% & & & & & & @ O % > 5 0 0 2 = + + @ & & & & & & & :X:X:X",
":X:X% & & & & & . @ 3 V ..%.&.&.&.*.=./ j > O @ & & & & & % :X:X",
":X% % & & % % + 3 D  .V 0 : X * & = 6 p / =.C - + & & & & & & :X",
"& % % % % % @ N  .f X > v f.g.7.] Y b 7 & 1 ! =.q O & & & & & & ",
"& % X % & % D | = : T J.E.C.B.w.M.q.w.9.U y O p u.d O & & & & & ",
"& & % % + D D + a c.E.N.0.a.E.|.}.B.J 6.y.S.d.$ 4 u.p O & & & & ",
"& & % O B ... h 6.n.5.K.y.a. X-X+XS.G o.8.r.[.V.- 5 u.5 + & & & ",
"& & @ 0 -.= w X.,.:.H.`.q.:.E.=X}.[ P F X.<.y.~.g.# k $.@ & % & ",
"& % + ..g * U ,.X.<.S.R.i.(..X*X@X.X.XoXh.J [ c.S.G + ..d O & & ",
"% @ q $.@ b 6.o.o.,.'./.i.<.2.3.} } 9.[.;X&Xm L m.>., u $.% & & ",
"% O Q B * z.6.o.R Y.$Xe.F ] A.F.F.A.5.` XX&XM c.m.>.b # $.q @ & ",
"% X $.4 z J.<.o.3.+XF.A m.~.{.{.{.{.Q.y.l.m P OXI.z.U $ Z V + % ",
"% 6 $.X E F.<.:.T.#XA 3.~.{.{.{.{.{.].w.n._ V.+XU.1.Y , s W @ % ",
"+ u #.. h.Q.8.^ T.I.G K. X{.{.{.W.K.W.K.A.C.L.L.l.' 1.w 0 ..% % ",
"O i ~ . V.F.@.^ }.4.) ~.{.{.{.].C.) c.c.T T d.d.1.{ 7.e 2 ..& % ",
"O i / . V.Q.O.^ }.4.T !.{.[.[.K.|.^.p.a.OXXXb c [ [ 5.e 7 ..& & ",
"+ 0 #.. d.G.O.^ N.n.H ]. X X].Y.].B.9.2._.*Xv L l.f.>.7 q ... & ",
"& > %.o L ].@.:.2.[.J L.K.|.].J.l.P d.H j.*Xv I x.T Y - f W + & ",
"% . #.i 9 E.0.<.}  XJ.U Y.W.J.H.c.c.z.( j.#Xn L g.Y A $ W k + & ",
"% O B Q + l.F.r.n.Z.$Xt.` g.5.2.4.' U T }.*XK c d.X.r = $.2 . & ",
"% % 1 ;.> a S.G.!.C.'.(.i.<.4.} ' { b.^.%Xk.x E ' U $ g ~ # & & ",
"& & O S S O H D.].{.C.t.p./.@X*X=X%X%X}.E m h.f.z.t * ;.0 # & & ",
"& & % : -.q o >.W.'.'.P.b.6.!.=XT.h.L L s.j.j.Y.n O W Q O & & & ",
"& & & O i -.< , 5.`.Y.I.U.c. X-XI.h H T f.v.).M O l %.* % % & & ",
"& & & & O f +.< ; I |.Y.L.c.B.'.v.G T ` b.f.x   l ;.6 % % % & & ",
"& & & & & O s +.s   r g.U.}.V.l.` 1.1.J v - = ! %.6 + & & & & & ",
"& & & & & X O w | D q . < y n L b y 9 # = l =.Q * + @ & & & & & ",
":X& & & & & & + % s  ...V p 5 4 4 u j ! =.~ 0 + % & & & & % & :X",
":X:X& & & & % % % + % 0 V ~ &.*.*.#.! j 6 + + % % & & & & & 8 :X",
":X:X:X& & % X % X % & @ O + % & & @ + O % & & & X % & & % 8 :X:X",
":X:X:X:X& % X % % % % % X % % % % % % % % & & & & % % % :X:X:X:X"
};
